<?xml version="1.0" encoding="UTF-8" standalone="no"?>
<!-- Created with Inkscape (http://www.inkscape.org/) -->

<svg
   width="256"
   height="256"
   viewBox="0 0 67.733334 67.733334"
   version="1.1"
   id="svg5"
   inkscape:version="1.2.2 (b0a8486541, 2022-12-01)"
   sodipodi:docname="dimensional_mirror.svg"
   xmlns:inkscape="http://www.inkscape.org/namespaces/inkscape"
   xmlns:sodipodi="http://sodipodi.sourceforge.net/DTD/sodipodi-0.dtd"
   xmlns:xlink="http://www.w3.org/1999/xlink"
   xmlns="http://www.w3.org/2000/svg"
   xmlns:svg="http://www.w3.org/2000/svg"
   xmlns:rdf="http://www.w3.org/1999/02/22-rdf-syntax-ns#"
   xmlns:cc="http://creativecommons.org/ns#">
  <sodipodi:namedview
     id="namedview7"
     pagecolor="#ffffff"
     bordercolor="#000000"
     borderopacity="0.25"
     inkscape:showpageshadow="2"
     inkscape:pageopacity="0.0"
     inkscape:pagecheckerboard="true"
     inkscape:deskcolor="#d1d1d1"
     inkscape:document-units="mm"
     showgrid="false"
     inkscape:zoom="2.1115193"
     inkscape:cx="103.2432"
     inkscape:cy="89.035416"
     inkscape:window-width="1920"
     inkscape:window-height="1004"
     inkscape:window-x="0"
     inkscape:window-y="0"
     inkscape:window-maximized="1"
     inkscape:current-layer="svg5">
    <inkscape:grid
       type="xygrid"
       id="grid342"
       originx="0"
       originy="0"
       spacingx="4.2333334"
       spacingy="4.2333334" />
  </sodipodi:namedview>
  <defs
     id="defs2">
    <inkscape:path-effect
       effect="fill_between_many"
       method="originald"
       linkedpaths="#mirror_out-3,0,1|#mirror_out,0,1"
       id="path-effect1268" />
  </defs>
  <g
     inkscape:label="Calque 1"
     inkscape:groupmode="layer"
     id="layer1" />
  <path
     d="m 33.8667,0.152127 a 22.3375,33.7145 0 1 0 22.3375,33.7145 22.3375,33.7145 0 0 0 -22.3375,-33.7145 z"
     style="display:none;mix-blend-mode:normal;fill:#000000;fill-opacity:0;stroke:#000000;stroke-width:0.264583;stroke-dasharray:none;stroke-opacity:1"
     id="mirror_out-6"
     inkscape:label="mirror_out_copy" />
  <rect
     style="display:none;fill:#000000;fill-opacity:1;stroke-width:0.264583;stroke-linejoin:bevel"
     id="rect1210"
     width="68.362892"
     height="68.189407"
     x="-0.25434929"
     y="-0.09423092" />
  <g
     inkscape:groupmode="layer"
     id="layer3"
     inkscape:label="Vortex"
     transform="matrix(0.95545659,0,0,0.94624463,1.51824,1.8237831)">
    <g
       id="g1831"
       transform="matrix(0.96059704,0,0,1.0159179,1.7559625,-0.46004008)">
      <g
         id="g1156"
         inkscape:tile-cx="34.084504"
         inkscape:tile-cy="33.927461"
         inkscape:tile-w="45.953126"
         inkscape:tile-h="69.48152"
         inkscape:tile-x0="11.107941"
         inkscape:tile-y0="-0.81329854">
        <g
           id="g9243"
           inkscape:transform-center-x="-11.545575"
           inkscape:transform-center-y="20.650825"
           transform="rotate(178.31245,33.882902,33.927461)"
           inkscape:tile-cx="33.882902"
           inkscape:tile-cy="33.927461"
           inkscape:tile-w="21.072939"
           inkscape:tile-h="28.179871"
           inkscape:tile-x0="34.892007"
           inkscape:tile-y0="40.48835"
           style="display:inline">
          <path
             d="m 32.8994,1.24859 c 0.4264,-0.03631 0.7457,-0.289472 0.8982,-0.689375 0.1525,-0.399902 0.0491,-0.852298 -0.262,-1.146235 -0.3111,-0.293937 -0.8323,-0.355274 -1.2124,-0.158532 -0.3801,0.196741 -0.6254,0.629777 -0.5653,1.053526 0.0395,0.277863 0.1877,0.528672 0.4121,0.697256 0.2244,0.16858 0.4497,0.26716 0.7294,0.24336 z"
             style="fill:#ffffff;fill-opacity:1;stroke:none;stroke-width:0;stroke-linecap:butt;stroke-linejoin:bevel;stroke-dasharray:none;stroke-opacity:1;paint-order:normal"
             id="use6400" />
          <path
             d="m 31.1201,1.43682 c 0.3988,-0.07939 0.6721,-0.36571 0.7733,-0.759506 0.1013,-0.393795 -0.0447,-0.809803 -0.3698,-1.054039 -0.325,-0.244236 -0.8203,-0.234134 -1.1584,-0.008184 -0.338,0.22595 -0.521,0.670237 -0.42,1.064089 0.0663,0.258258 0.2324,0.47962 0.4618,0.61539 0.2295,0.13577 0.4516,0.19431 0.7131,0.14225 z"
             style="fill:#ffffff;fill-opacity:1;stroke:none;stroke-width:0;stroke-linecap:butt;stroke-linejoin:bevel;stroke-dasharray:none;stroke-opacity:1;paint-order:normal"
             id="use6402" />
          <path
             d="M 29.3694,1.84514 C 29.7368,1.72956 29.9624,1.41844 30.0168,1.03709 30.0712,0.655746 29.8904,0.279205 29.5589,0.0830525 29.2274,-0.1131 28.7131,-0.0321854 28.4313,0.230368 28.1494,0.492922 28.0534,0.899417 28.1881,1.2603 c 0.0884,0.23665 0.2671,0.42851 0.4969,0.53339 0.2298,0.10487 0.4434,0.12724 0.6844,0.05145 z"
             style="fill:#ffffff;fill-opacity:1;stroke:none;stroke-width:0;stroke-linecap:butt;stroke-linejoin:bevel;stroke-dasharray:none;stroke-opacity:1;paint-order:normal"
             id="use6404" />
          <path
             d="M 27.7106,2.44117 C 28.0368,2.28016 28.2175,1.98389 28.2118,1.62013 28.206,1.25637 27.9817,0.931884 27.6434,0.797989 27.3052,0.664094 26.8758,0.768095 26.636,1.0417 26.3962,1.3153 26.33,1.71622 26.5067,2.03425 c 0.1159,0.20855 0.291,0.37555 0.5169,0.45216 0.2259,0.07661 0.473,0.06034 0.687,-0.04524 z"
             style="fill:#ffffff;fill-opacity:1;stroke:none;stroke-width:0;stroke-linecap:butt;stroke-linejoin:bevel;stroke-dasharray:none;stroke-opacity:1;paint-order:normal"
             id="use6406" />
          <path
             d="M 26.0775,3.24907 C 26.3686,3.06885 26.508,2.76603 26.469,2.42586 26.4299,2.08568 26.1897,1.80254 25.8605,1.70846 25.5313,1.61438 25.1447,1.75679 24.9447,2.03471 c -0.2,0.27793 -0.2229,0.66238 -0.0295,0.94496 0.264,0.38587 0.7647,0.5155 1.1623,0.2694 z"
             style="fill:#ffffff;fill-opacity:1;stroke:none;stroke-width:0;stroke-linecap:butt;stroke-linejoin:bevel;stroke-dasharray:none;stroke-opacity:1;paint-order:normal"
             id="use6408" />
          <path
             d="M 24.5262,4.22211 C 24.8766,3.95873 24.9444,3.49084 24.6969,3.12909 24.4493,2.76734 23.9228,2.68984 23.5724,2.95321 23.222,3.21658 23.1411,3.73157 23.4194,4.0703 c 0.1336,0.16266 0.31,0.27364 0.5185,0.30319 0.2084,0.02955 0.42,-0.02491 0.5883,-0.15138 z"
             style="fill:#ffffff;fill-opacity:1;stroke:none;stroke-width:0;stroke-linecap:butt;stroke-linejoin:bevel;stroke-dasharray:none;stroke-opacity:1;paint-order:normal"
             id="use6410" />
          <path
             d="m 23.0641,5.33925 c 0.2234,-0.19967 0.2925,-0.49232 0.2054,-0.779 -0.0871,-0.28668 -0.3383,-0.49266 -0.6365,-0.52191 -0.2982,-0.02924 -0.6,0.15729 -0.73,0.42725 -0.13,0.26995 -0.0889,0.6047 0.1196,0.81983 0.1368,0.14107 0.3102,0.23014 0.5064,0.24114 0.1961,0.011 0.3886,-0.05638 0.5351,-0.18731 z"
             style="fill:#ffffff;fill-opacity:1;stroke:none;stroke-width:0;stroke-linecap:butt;stroke-linejoin:bevel;stroke-dasharray:none;stroke-opacity:1;paint-order:normal"
             id="use6412" />
          <path
             d="M 21.7093,6.57596 C 21.8974,6.37101 21.9288,6.10101 21.8263,5.84235 21.7239,5.58368 21.4757,5.41221 21.1975,5.40789 20.9193,5.40357 20.6518,5.6139 20.5565,5.87523 c -0.0954,0.26132 -0.0239,0.55434 0.1811,0.74242 0.1343,0.12333 0.3122,0.18823 0.4945,0.18041 0.1822,-0.00782 0.3539,-0.08771 0.4772,-0.2221 z"
             style="fill:#ffffff;fill-opacity:1;stroke:none;stroke-width:0;stroke-linecap:butt;stroke-linejoin:bevel;stroke-dasharray:none;stroke-opacity:1;paint-order:normal"
             id="use6414" />
          <path
             d="m 20.4318,7.92374 c 0.1592,-0.20149 0.167,-0.44465 0.0586,-0.67745 -0.1083,-0.2328 -0.3462,-0.37741 -0.6028,-0.3664 -0.2565,0.01101 -0.4948,0.23029 -0.5648,0.47736 -0.0699,0.24707 0.0158,0.51194 0.2173,0.67112 0.1321,0.10437 0.3003,0.15199 0.4676,0.13236 0.1672,-0.01962 0.3198,-0.10487 0.4241,-0.23699 z"
             style="fill:#ffffff;fill-opacity:1;stroke:none;stroke-width:0;stroke-linecap:butt;stroke-linejoin:bevel;stroke-dasharray:none;stroke-opacity:1;paint-order:normal"
             id="use6416" />
          <path
             d="M 19.2467,9.36225 C 19.3794,9.16782 19.3758,8.9463 19.261,8.74082 19.1462,8.53533 18.9189,8.41924 18.6852,8.44667 18.4514,8.4741 18.2445,8.68474 18.1963,8.91514 c -0.0481,0.23041 0.0472,0.46714 0.2417,0.59981 0.1275,0.087 0.2843,0.11978 0.436,0.09115 0.1516,-0.02864 0.2857,-0.11635 0.3727,-0.24385 z"
             style="fill:#ffffff;fill-opacity:1;stroke:none;stroke-width:0;stroke-linecap:butt;stroke-linejoin:bevel;stroke-dasharray:none;stroke-opacity:1;paint-order:normal"
             id="use6418" />
          <path
             d="m 18.1518,10.8784 c 0.1087,-0.1843 0.1006,-0.3815 -0.0166,-0.5605 -0.1171,-0.1791 -0.3306,-0.27 -0.5409,-0.2303 -0.2103,0.0397 -0.3923,0.2365 -0.4222,0.4484 -0.0298,0.2119 0.0709,0.4209 0.2553,0.5296 0.1209,0.0712 0.2651,0.0915 0.401,0.0564 0.1358,-0.0351 0.2522,-0.1227 0.3234,-0.2436 z"
             style="fill:#ffffff;fill-opacity:1;stroke:none;stroke-width:0;stroke-linecap:butt;stroke-linejoin:bevel;stroke-dasharray:none;stroke-opacity:1;paint-order:normal"
             id="use6420" />
          <path
             d="m 17.1391,12.4924 c 0.0978,-0.1659 0.086,-0.3744 -0.0298,-0.5282 -0.1159,-0.1539 -0.313,-0.2228 -0.4995,-0.1746 -0.1864,0.0482 -0.3503,0.2273 -0.3651,0.4193 -0.0148,0.192 0.0876,0.3741 0.2593,0.4612 0.1126,0.0572 0.2434,0.0672 0.3634,0.028 0.12,-0.0392 0.2076,-0.0969 0.2717,-0.2057 z"
             style="fill:#ffffff;fill-opacity:1;stroke:none;stroke-width:0;stroke-linecap:butt;stroke-linejoin:bevel;stroke-dasharray:none;stroke-opacity:1;paint-order:normal"
             id="use6422" />
          <path
             d="m 16.2351,14.1356 c 0.0775,-0.1527 0.0554,-0.337 -0.056,-0.467 -0.1114,-0.13 -0.2902,-0.1801 -0.4529,-0.1269 -0.1627,0.0532 -0.2774,0.1992 -0.2905,0.3699 -0.0132,0.1707 0.0778,0.3325 0.2305,0.4099 0.1001,0.0508 0.2163,0.0597 0.323,0.0249 0.1067,-0.0349 0.1951,-0.1107 0.2459,-0.2108 z"
             style="fill:#ffffff;fill-opacity:1;stroke:none;stroke-width:0;stroke-linecap:butt;stroke-linejoin:bevel;stroke-dasharray:none;stroke-opacity:1;paint-order:normal"
             id="use6424" />
          <path
             d="m 15.4138,15.8267 c 0.0596,-0.1374 0.0306,-0.2972 -0.0736,-0.4048 -0.1041,-0.1077 -0.2629,-0.142 -0.4022,-0.087 -0.1393,0.0551 -0.2318,0.1886 -0.2343,0.3384 -0.0024,0.1498 0.0856,0.2863 0.223,0.3459 0.0901,0.0391 0.1921,0.0407 0.2834,0.0046 0.0914,-0.036 0.1646,-0.1069 0.2037,-0.1971 z"
             style="fill:#ffffff;fill-opacity:1;stroke:none;stroke-width:0;stroke-linecap:butt;stroke-linejoin:bevel;stroke-dasharray:none;stroke-opacity:1;paint-order:normal"
             id="use6426" />
          <path
             d="m 14.6715,17.5589 c 0.0441,-0.1205 0.0113,-0.2558 -0.0832,-0.3428 -0.0944,-0.0869 -0.232,-0.1084 -0.3485,-0.0544 -0.1165,0.054 -0.1889,0.1729 -0.1836,0.3012 0.0053,0.1283 0.0874,0.2407 0.208,0.2849 0.079,0.029 0.1663,0.0253 0.2427,-0.0101 0.0764,-0.0354 0.1356,-0.0997 0.1646,-0.1788 z"
             style="fill:#ffffff;fill-opacity:1;stroke:none;stroke-width:0;stroke-linecap:butt;stroke-linejoin:bevel;stroke-dasharray:none;stroke-opacity:1;paint-order:normal"
             id="use6428" />
          <path
             d="m 14.0042,19.3262 c 0.0311,-0.1024 -0.0025,-0.2134 -0.0852,-0.2814 -0.0827,-0.0679 -0.1981,-0.0793 -0.2925,-0.029 -0.0944,0.0504 -0.1492,0.1527 -0.1387,0.2592 0.0104,0.1065 0.0839,0.1962 0.1863,0.2273 0.0671,0.0205 0.1396,0.0134 0.2015,-0.0197 0.0619,-0.033 0.1081,-0.0893 0.1286,-0.1564 z"
             style="fill:#ffffff;fill-opacity:1;stroke:none;stroke-width:0;stroke-linecap:butt;stroke-linejoin:bevel;stroke-dasharray:none;stroke-opacity:1;paint-order:normal"
             id="use6430" />
          <path
             d="m 13.4084,21.1237 c 0.0204,-0.0831 -0.0109,-0.1612 -0.077,-0.2156 -0.0662,-0.0543 -0.1585,-0.0635 -0.2341,-0.0232 -0.0755,0.0403 -0.1166,0.1357 -0.1037,0.2203 0.013,0.0846 0.0756,0.1531 0.1587,0.1736 0.0545,0.0134 0.1121,0.0046 0.1601,-0.0245 0.0481,-0.0291 0.0826,-0.076 0.096,-0.1306 z"
             style="fill:#ffffff;fill-opacity:1;stroke:none;stroke-width:0;stroke-linecap:butt;stroke-linejoin:bevel;stroke-dasharray:none;stroke-opacity:1;paint-order:normal"
             id="use6432" />
          <path
             d="m 12.9024,22.9609 c 0.0153,-0.0624 -0.0084,-0.1278 -0.0601,-0.1658 -0.0518,-0.0381 -0.1213,-0.0412 -0.1762,-0.0079 -0.0549,0.0332 -0.0844,0.0963 -0.0747,0.1598 0.0097,0.0634 0.0567,0.1148 0.119,0.1301 0.0409,0.0101 0.0841,0.0035 0.1201,-0.0183 0.036,-0.0218 0.0619,-0.0571 0.0719,-0.0979 z"
             style="fill:#ffffff;fill-opacity:1;stroke:none;stroke-width:0;stroke-linecap:butt;stroke-linejoin:bevel;stroke-dasharray:none;stroke-opacity:1;paint-order:normal"
             id="use6434" />
          <path
             d="m 12.473,24.809 c 0.008,-0.0421 -0.0101,-0.0848 -0.0459,-0.1083 -0.0357,-0.0235 -0.0822,-0.0231 -0.1176,9e-4 -0.0353,0.0241 -0.0528,0.0671 -0.0441,0.109 0.0087,0.0419 0.0418,0.0745 0.0838,0.0825 0.0276,0.0053 0.0561,-7e-4 0.0793,-0.0164 0.0232,-0.0158 0.0392,-0.0402 0.0445,-0.0677 z"
             style="fill:#ffffff;fill-opacity:1;stroke:none;stroke-width:0;stroke-linecap:butt;stroke-linejoin:bevel;stroke-dasharray:none;stroke-opacity:1;paint-order:normal"
             id="use6436" />
          <path
             d="m 12.1105,26.675 c 0.0029,-0.0212 -0.0072,-0.0421 -0.0257,-0.0529 -0.0184,-0.0108 -0.0416,-0.0094 -0.0587,0.0035 -0.017,0.0129 -0.0246,0.0348 -0.0192,0.0555 0.0054,0.0207 0.0227,0.0361 0.0439,0.0391 0.029,0.004 0.0557,-0.0162 0.0597,-0.0452 z"
             style="fill:#ffffff;fill-opacity:1;stroke:none;stroke-width:0;stroke-linecap:butt;stroke-linejoin:bevel;stroke-dasharray:none;stroke-opacity:1;paint-order:normal"
             id="use6438" />
        </g>
        <g
           id="g943">
          <g
             id="g876">
            <use
               x="0"
               y="0"
               inkscape:tiled-clone-of="#g9243"
               xlink:href="#g9243"
               id="use870"
               inkscape:transform-center-x="-36.463626"
               inkscape:transform-center-y="45.601645" />
            <use
               x="0"
               y="0"
               inkscape:tiled-clone-of="#g9243"
               xlink:href="#g9243"
               transform="rotate(180,33.882902,33.927461)"
               id="use872"
               inkscape:transform-center-x="-13.372476"
               inkscape:transform-center-y="4.2999964" />
          </g>
          <g
             id="g876-3"
             transform="matrix(0,0.97969573,-0.66137192,0,56.523174,0.3336288)">
            <use
               x="0"
               y="0"
               inkscape:tiled-clone-of="#g9243"
               xlink:href="#g9243"
               id="use870-6"
               inkscape:transform-center-x="-36.463626"
               inkscape:transform-center-y="45.601645" />
            <use
               x="0"
               y="0"
               inkscape:tiled-clone-of="#g9243"
               xlink:href="#g9243"
               transform="rotate(180,33.882902,33.927461)"
               id="use872-7"
               inkscape:transform-center-x="-13.372476"
               inkscape:transform-center-y="4.2999964" />
          </g>
        </g>
      </g>
      <use
         x="0"
         y="0"
         inkscape:tiled-clone-of="#g1156"
         xlink:href="#g1156"
         id="use1668" />
      <use
         x="0"
         y="0"
         inkscape:tiled-clone-of="#g1156"
         xlink:href="#g1156"
         transform="matrix(0.86933324,0.23293714,-0.23293714,0.86933324,12.356677,-3.5063556)"
         id="use1670" />
      <use
         x="0"
         y="0"
         inkscape:tiled-clone-of="#g1156"
         xlink:href="#g1156"
         transform="matrix(0.69282032,0.4,-0.4,0.69282032,24.041052,-3.2119751)"
         id="use1672" />
      <use
         x="0"
         y="0"
         inkscape:tiled-clone-of="#g1156"
         xlink:href="#g1156"
         transform="matrix(0.49497475,0.49497475,-0.49497475,0.49497475,34.006772,0.26325586)"
         id="use1674" />
      <use
         x="0"
         y="0"
         inkscape:tiled-clone-of="#g1156"
         xlink:href="#g1156"
         transform="matrix(0.3,0.51961524,-0.51961524,0.3,41.488379,6.038395)"
         id="use1676" />
      <use
         x="0"
         y="0"
         inkscape:tiled-clone-of="#g1156"
         xlink:href="#g1156"
         transform="matrix(0.12940952,0.48296291,-0.48296291,0.12940952,46.05935,13.075373)"
         id="use1678" />
      <use
         x="0"
         y="0"
         inkscape:tiled-clone-of="#g1156"
         xlink:href="#g1156"
         transform="matrix(0,0.4,-0.4,0,47.655489,20.29366)"
         id="use1680" />
      <use
         x="0"
         y="0"
         inkscape:tiled-clone-of="#g1156"
         xlink:href="#g1156"
         transform="matrix(-0.07764571,0.28977775,-0.28977775,-0.07764571,46.562443,26.684852)"
         id="use1682" />
      <use
         x="0"
         y="0"
         inkscape:tiled-clone-of="#g1156"
         xlink:href="#g1156"
         transform="matrix(-0.1,0.17320508,-0.17320508,-0.1,43.369363,31.416598)"
         id="use1684" />
      <use
         x="0"
         y="0"
         inkscape:tiled-clone-of="#g1156"
         xlink:href="#g1156"
         transform="matrix(-0.07071068,0.07071068,-0.07071068,-0.07071068,38.893677,33.916357)"
         id="use1686" />
    </g>
  </g>
  <g
     inkscape:groupmode="layer"
     id="layer2"
     inkscape:label="Mirror"
     transform="translate(-10.401835,-3.4512293)"
     style="display:inline">
    <ellipse
       style="mix-blend-mode:normal;fill:#ffffff;fill-opacity:0;stroke:#000000;stroke-width:7.48095;stroke-dasharray:none;stroke-opacity:1"
       id="mirror_out"
       cx="44.400791"
       cy="37.589493"
       rx="18.881401"
       ry="30.397791" />
    <ellipse
       style="mix-blend-mode:normal;fill:#ffffff;fill-opacity:0;stroke:#ffffff;stroke-width:4.18928;stroke-dasharray:none;stroke-opacity:1"
       id="mirror_out-3"
       cx="44.400791"
       cy="37.317898"
       rx="18.807442"
       ry="29.655361"
       inkscape:label="mirror_in" />
  </g>
  <metadata
     id="metadata349">
    <rdf:RDF>
      <cc:License
         rdf:about="http://creativecommons.org/publicdomain/zero/1.0/">
        <cc:permits
           rdf:resource="http://creativecommons.org/ns#Reproduction" />
        <cc:permits
           rdf:resource="http://creativecommons.org/ns#Distribution" />
        <cc:permits
           rdf:resource="http://creativecommons.org/ns#DerivativeWorks" />
      </cc:License>
      <cc:Work
         rdf:about="">
        <cc:license
           rdf:resource="http://creativecommons.org/publicdomain/zero/1.0/" />
      </cc:Work>
    </rdf:RDF>
  </metadata>
</svg>
